<?xml version="1.0" encoding="UTF-8" ?>
<!DOCTYPE svg PUBLIC "-//W3C//DTD SVG 1.1//EN" "http://www.w3.org/Graphics/SVG/1.1/DTD/svg11.dtd">
<svg width="2054pt" height="487pt" viewBox="0 0 2054 487" version="1.1" xmlns="http://www.w3.org/2000/svg">
<path fill="#fffefe" d=" M 0.00 0.00 L 2054.00 0.00 L 2054.00 487.00 L 0.00 487.00 L 0.00 0.00 Z" />
<path fill="#c2ae4b" d=" M 1309.01 104.97 C 1337.00 80.41 1373.74 65.99 1411.00 65.25 C 1445.24 64.24 1479.65 74.70 1507.63 94.43 C 1535.38 113.79 1556.70 142.12 1567.74 174.10 C 1580.08 209.27 1579.79 248.71 1566.90 283.69 C 1555.54 315.08 1534.19 342.75 1506.68 361.66 C 1473.81 384.54 1432.18 394.49 1392.53 388.68 C 1357.66 383.87 1324.62 367.13 1300.00 341.99 C 1267.21 308.94 1249.80 261.26 1253.85 214.86 C 1254.33 213.13 1256.67 214.09 1257.99 213.81 C 1337.35 213.83 1416.71 213.71 1496.07 213.58 C 1488.05 227.24 1479.16 240.39 1470.83 253.86 C 1451.55 284.22 1432.36 314.65 1413.05 344.99 C 1410.28 349.62 1411.42 356.00 1415.39 359.59 C 1420.17 364.46 1429.31 363.93 1433.36 358.36 C 1463.86 310.19 1494.36 262.00 1524.90 213.85 C 1527.76 210.20 1528.81 205.50 1528.84 200.93 C 1528.88 195.12 1523.84 189.74 1518.05 189.39 C 1431.37 189.44 1344.68 189.65 1258.00 189.66 C 1265.29 156.94 1283.83 126.99 1309.01 104.97 Z" />
<path fill="#db1947" d=" M 1710.44 80.56 C 1743.10 65.07 1781.12 61.01 1816.25 69.60 C 1803.26 85.60 1792.37 104.27 1789.68 125.00 C 1788.05 147.08 1796.56 168.03 1802.55 188.86 C 1805.73 200.06 1809.02 211.70 1807.24 223.45 C 1804.72 237.86 1795.74 250.47 1784.54 259.56 C 1779.94 263.77 1779.65 271.59 1783.85 276.19 C 1787.70 280.97 1795.35 281.99 1800.24 278.20 C 1816.36 264.81 1828.92 246.00 1831.51 224.88 C 1833.87 205.99 1827.49 187.58 1822.13 169.74 C 1818.44 157.74 1814.55 145.62 1813.72 133.01 C 1813.30 124.46 1816.29 116.20 1819.77 108.53 C 1825.23 97.12 1832.85 86.83 1841.66 77.79 C 1872.81 90.91 1899.62 114.01 1917.11 142.94 C 1938.14 177.25 1945.63 219.49 1937.83 258.96 C 1931.59 291.32 1915.24 321.66 1891.52 344.55 C 1865.44 370.09 1830.40 386.31 1794.03 389.54 C 1751.88 393.73 1708.40 380.11 1675.97 352.92 C 1648.70 330.39 1629.30 298.62 1621.48 264.14 C 1612.93 227.31 1617.80 187.54 1635.03 153.88 C 1651.11 121.98 1678.08 95.70 1710.44 80.56 Z" />
<path fill="#76cfd8" d=" M 991.34 77.33 C 1026.44 63.64 1066.35 62.75 1101.96 75.10 C 1136.81 86.92 1167.22 111.15 1186.65 142.38 C 1202.87 168.23 1211.67 198.74 1211.44 229.27 C 1138.09 229.28 1064.74 229.74 991.38 229.72 C 991.36 178.92 991.44 128.13 991.34 77.33 Z" />
<path fill="#da1f92" d=" M 209.62 97.58 C 233.12 80.80 261.21 70.46 290.01 68.19 C 334.01 64.32 379.36 79.78 411.78 109.80 C 383.00 140.69 354.21 171.58 325.67 202.68 C 297.92 173.65 270.76 144.03 243.25 114.76 C 239.95 109.87 233.34 107.21 227.77 109.80 C 220.62 112.51 217.93 122.44 222.73 128.39 C 245.93 153.17 269.10 177.99 292.29 202.79 C 297.67 208.86 303.64 214.41 308.76 220.72 C 281.66 249.95 254.54 279.15 227.44 308.38 C 222.42 313.61 224.08 323.20 230.39 326.66 C 233.05 328.05 235.88 329.44 238.93 329.60 C 291.29 329.60 343.65 329.59 396.01 329.61 C 399.64 329.70 403.61 329.98 406.67 327.63 C 412.32 324.03 413.82 315.60 409.73 310.29 C 407.84 307.71 404.89 305.83 401.70 305.43 C 355.63 305.24 309.54 305.59 263.46 305.25 C 317.78 246.63 372.20 188.11 426.49 129.46 C 427.16 128.79 428.51 127.11 429.37 128.53 C 458.54 164.59 470.71 213.50 462.36 259.08 C 455.93 295.24 436.86 329.04 409.06 353.05 C 375.92 382.19 330.41 396.67 286.52 391.85 C 250.14 388.18 215.21 371.59 189.42 345.67 C 167.03 323.62 151.48 294.82 144.99 264.11 C 138.74 234.85 140.75 203.88 150.79 175.70 C 161.79 144.46 182.58 116.73 209.62 97.58 Z" />
<path fill="#e87533" d=" M 605.14 83.41 C 641.27 65.95 684.01 62.83 722.29 74.85 C 754.58 84.82 783.56 105.20 803.75 132.31 C 824.99 160.46 836.62 195.69 836.36 230.95 C 836.30 268.70 822.54 306.27 798.14 335.09 C 775.46 362.24 743.60 381.52 709.03 389.00 C 702.13 390.40 695.17 391.84 688.10 391.83 C 714.78 351.86 741.17 311.70 767.78 271.68 C 771.85 266.75 773.03 259.40 770.64 253.50 C 768.52 249.24 763.79 246.58 759.07 246.78 C 714.81 246.89 670.54 246.67 626.28 246.89 C 625.66 238.28 625.86 229.64 625.78 221.02 C 625.71 194.01 625.57 167.00 625.50 139.99 C 625.60 134.59 621.29 129.56 616.08 128.46 C 609.29 126.71 601.61 131.92 601.28 139.01 C 601.36 178.35 601.61 217.70 601.71 257.05 C 601.53 261.77 604.44 266.45 608.80 268.32 C 611.75 269.58 614.70 271.27 618.00 271.31 C 658.28 271.29 698.57 271.26 738.86 271.33 C 717.93 302.92 697.00 334.51 676.08 366.12 C 670.53 374.69 664.58 383.03 659.31 391.78 C 624.86 389.06 591.76 373.92 566.20 350.82 C 539.56 326.70 521.31 293.51 515.29 258.08 C 508.94 222.08 515.22 184.02 532.83 151.98 C 548.96 122.31 574.62 97.90 605.14 83.41 Z" />
<path fill="#76cfd8" d=" M 891.18 196.92 C 899.88 152.58 927.95 112.15 967.10 89.41 C 967.33 173.62 967.09 257.83 967.20 342.04 C 967.27 349.21 975.20 354.63 981.98 352.80 C 987.27 351.62 991.58 346.58 991.42 341.07 C 991.39 312.14 991.32 283.22 991.45 254.29 C 1021.65 254.29 1051.83 253.69 1082.04 253.76 C 1124.59 253.69 1167.14 253.50 1209.69 253.43 C 1204.53 287.43 1188.39 319.70 1164.02 343.98 C 1138.29 369.96 1103.46 386.74 1067.08 390.54 C 1033.12 394.35 998.03 386.80 968.56 369.53 C 941.89 354.01 919.83 330.68 905.86 303.17 C 889.16 270.75 883.99 232.64 891.18 196.92 Z" />
<path fill="#fffefe" d=" M 644.15 96.08 C 647.09 95.15 650.46 95.36 653.18 96.87 C 683.86 114.86 714.60 132.75 745.31 150.69 C 749.81 153.76 751.62 160.23 749.37 165.21 C 746.99 171.66 738.52 174.76 732.54 171.39 C 702.71 153.94 672.86 136.49 642.97 119.12 C 639.02 117.26 635.88 113.46 635.56 109.01 C 634.87 103.36 638.70 97.66 644.15 96.08 Z" />
<path fill="#fffefe" d=" M 1051.35 111.57 C 1058.47 109.08 1067.03 114.32 1067.43 121.95 C 1067.52 140.99 1067.51 160.04 1067.61 179.07 C 1067.71 184.32 1063.56 189.07 1058.61 190.39 C 1051.44 192.51 1043.17 186.60 1043.35 179.04 C 1043.34 160.36 1043.29 141.68 1043.22 123.00 C 1042.88 117.90 1046.58 113.10 1051.35 111.57 Z" />
<path fill="#fffefe" d=" M 1108.35 113.44 C 1115.67 110.14 1124.84 116.03 1125.10 123.99 C 1125.23 142.66 1125.12 161.35 1125.15 180.02 C 1125.31 186.22 1120.16 191.96 1113.96 192.39 C 1107.41 193.12 1100.89 187.66 1100.72 181.03 C 1100.67 162.35 1100.76 143.66 1100.68 124.98 C 1100.46 120.01 1103.74 115.23 1108.35 113.44 Z" />
<path fill="#fffefe" d=" M 1347.32 124.31 C 1397.56 124.15 1447.82 124.30 1498.07 124.23 C 1504.92 124.30 1510.31 131.44 1509.19 138.06 C 1508.43 143.56 1503.54 148.31 1497.93 148.45 C 1448.30 148.44 1398.68 148.41 1349.05 148.47 C 1344.24 148.55 1339.81 145.19 1338.03 140.82 C 1335.14 133.97 1339.87 125.25 1347.32 124.31 Z" />
<path fill="#fffefe" d=" M 1765.40 291.67 C 1768.38 290.10 1772.27 292.66 1772.30 295.94 C 1772.31 300.96 1770.88 306.03 1772.11 311.02 C 1773.33 317.41 1778.33 321.93 1782.29 326.73 C 1784.30 328.78 1784.24 332.28 1782.34 334.38 C 1779.32 337.05 1774.72 336.17 1771.11 337.47 C 1764.59 338.81 1760.61 344.78 1758.52 350.65 C 1757.25 353.84 1755.19 358.54 1750.93 357.45 C 1744.30 353.79 1742.94 345.38 1737.56 340.45 C 1733.96 336.57 1728.29 336.86 1723.57 335.58 C 1720.64 334.90 1717.98 332.03 1718.76 328.88 C 1720.34 322.84 1727.14 320.07 1728.88 314.10 C 1730.34 308.78 1728.68 303.28 1728.83 297.89 C 1728.91 295.17 1731.00 292.35 1733.96 292.66 C 1739.80 293.64 1744.83 297.95 1750.99 297.53 C 1756.38 297.35 1760.74 293.92 1765.40 291.67 Z" />
</svg>
